<svg width="69" height="69" viewBox="0 0 69 69" fill="none" xmlns="http://www.w3.org/2000/svg">
<path d="M21.5625 34.5C23.85 34.5 26.0438 33.5913 27.6613 31.9738C29.2788 30.3563 30.1875 28.1625 30.1875 25.875C30.1875 23.5875 29.2788 21.3937 27.6613 19.7762C26.0438 18.1587 23.85 17.25 21.5625 17.25C19.275 17.25 17.0812 18.1587 15.4637 19.7762C13.8462 21.3937 12.9375 23.5875 12.9375 25.875C12.9375 28.1625 13.8462 30.3563 15.4637 31.9738C17.0812 33.5913 19.275 34.5 21.5625 34.5ZM38.8125 23.7188C38.8125 23.1469 39.0397 22.5984 39.444 22.1941C39.8484 21.7897 40.3969 21.5625 40.9688 21.5625H58.2188C58.7906 21.5625 59.3391 21.7897 59.7435 22.1941C60.1478 22.5984 60.375 23.1469 60.375 23.7188C60.375 24.2906 60.1478 24.8391 59.7435 25.2434C59.3391 25.6478 58.7906 25.875 58.2188 25.875H40.9688C40.3969 25.875 39.8484 25.6478 39.444 25.2434C39.0397 24.8391 38.8125 24.2906 38.8125 23.7188ZM38.8125 34.5C38.8125 33.9281 39.0397 33.3797 39.444 32.9753C39.8484 32.5709 40.3969 32.3438 40.9688 32.3438H58.2188C58.7906 32.3438 59.3391 32.5709 59.7435 32.9753C60.1478 33.3797 60.375 33.9281 60.375 34.5C60.375 35.0719 60.1478 35.6203 59.7435 36.0247C59.3391 36.4291 58.7906 36.6562 58.2188 36.6562H40.9688C40.3969 36.6562 39.8484 36.4291 39.444 36.0247C39.0397 35.6203 38.8125 35.0719 38.8125 34.5ZM43.125 45.2812C43.125 44.7094 43.3522 44.1609 43.7565 43.7565C44.1609 43.3522 44.7094 43.125 45.2812 43.125H58.2188C58.7906 43.125 59.3391 43.3522 59.7435 43.7565C60.1478 44.1609 60.375 44.7094 60.375 45.2812C60.375 45.8531 60.1478 46.4016 59.7435 46.806C59.3391 47.2103 58.7906 47.4375 58.2188 47.4375H45.2812C44.7094 47.4375 44.1609 47.2103 43.7565 46.806C43.3522 46.4016 43.125 45.8531 43.125 45.2812Z" fill="#71C76C"/>
<path d="M8.625 8.625C6.33751 8.625 4.14371 9.5337 2.5262 11.1512C0.908703 12.7687 0 14.9625 0 17.25L0 51.75C0 54.0375 0.908703 56.2313 2.5262 57.8488C4.14371 59.4663 6.33751 60.375 8.625 60.375H60.375C62.6625 60.375 64.8563 59.4663 66.4738 57.8488C68.0913 56.2313 69 54.0375 69 51.75V17.25C69 14.9625 68.0913 12.7687 66.4738 11.1512C64.8563 9.5337 62.6625 8.625 60.375 8.625H8.625ZM4.3125 17.25C4.3125 16.1063 4.76685 15.0094 5.5756 14.2006C6.38435 13.3919 7.48125 12.9375 8.625 12.9375H60.375C61.5187 12.9375 62.6156 13.3919 63.4244 14.2006C64.2331 15.0094 64.6875 16.1063 64.6875 17.25V51.75C64.6875 52.8937 64.2331 53.9906 63.4244 54.7994C62.6156 55.6081 61.5187 56.0625 60.375 56.0625H38.64C38.755 55.3581 38.8125 54.6394 38.8125 53.9062C38.8125 45.5702 31.0931 38.8125 21.5625 38.8125C12.5666 38.8125 5.175 44.8414 4.3815 52.5306C4.33486 52.273 4.31176 52.0117 4.3125 51.75V17.25Z" fill="#71C76C"/>
</svg>
