<svg width="54" height="54" viewBox="0 0 54 54" fill="none" xmlns="http://www.w3.org/2000/svg">
<path d="M42.1875 54C45.3204 54 48.3249 52.7555 50.5402 50.5402C52.7555 48.3249 54 45.3204 54 42.1875C54 39.0546 52.7555 36.0501 50.5402 33.8348C48.3249 31.6195 45.3204 30.375 42.1875 30.375C39.0546 30.375 36.0501 31.6195 33.8348 33.8348C31.6195 36.0501 30.375 39.0546 30.375 42.1875C30.375 45.3204 31.6195 48.3249 33.8348 50.5402C36.0501 52.7555 39.0546 54 42.1875 54ZM43.875 37.125V40.5H47.25C47.6976 40.5 48.1268 40.6778 48.4432 40.9943C48.7597 41.3107 48.9375 41.7399 48.9375 42.1875C48.9375 42.6351 48.7597 43.0643 48.4432 43.3807C48.1268 43.6972 47.6976 43.875 47.25 43.875H43.875V47.25C43.875 47.6976 43.6972 48.1268 43.3807 48.4432C43.0643 48.7597 42.6351 48.9375 42.1875 48.9375C41.7399 48.9375 41.3107 48.7597 40.9943 48.4432C40.6778 48.1268 40.5 47.6976 40.5 47.25V43.875H37.125C36.6774 43.875 36.2482 43.6972 35.9318 43.3807C35.6153 43.0643 35.4375 42.6351 35.4375 42.1875C35.4375 41.7399 35.6153 41.3107 35.9318 40.9943C36.2482 40.6778 36.6774 40.5 37.125 40.5H40.5V37.125C40.5 36.6774 40.6778 36.2482 40.9943 35.9318C41.3107 35.6153 41.7399 35.4375 42.1875 35.4375C42.6351 35.4375 43.0643 35.6153 43.3807 35.9318C43.6972 36.2482 43.875 36.6774 43.875 37.125ZM37.125 16.875C37.125 19.5603 36.0583 22.1356 34.1595 24.0345C32.2607 25.9333 29.6853 27 27 27C24.3147 27 21.7393 25.9333 19.8405 24.0345C17.9417 22.1356 16.875 19.5603 16.875 16.875C16.875 14.1897 17.9417 11.6143 19.8405 9.71554C21.7393 7.81674 24.3147 6.75 27 6.75C29.6853 6.75 32.2607 7.81674 34.1595 9.71554C36.0583 11.6143 37.125 14.1897 37.125 16.875ZM27 23.625C28.7902 23.625 30.5071 22.9138 31.773 21.648C33.0388 20.3821 33.75 18.6652 33.75 16.875C33.75 15.0848 33.0388 13.3679 31.773 12.102C30.5071 10.8362 28.7902 10.125 27 10.125C25.2098 10.125 23.4929 10.8362 22.227 12.102C20.9612 13.3679 20.25 15.0848 20.25 16.875C20.25 18.6652 20.9612 20.3821 22.227 21.648C23.4929 22.9138 25.2098 23.625 27 23.625Z" fill="#F36A6A"/>
<path d="M27.864 47.25C27.4776 46.1538 27.2182 45.0169 27.0911 43.8615H10.125C10.1284 43.0313 10.6448 40.5337 12.933 38.2455C15.1335 36.045 19.2746 33.75 27 33.75C27.8775 33.75 28.71 33.7781 29.4975 33.8344C30.2603 32.6835 31.1715 31.6406 32.211 30.7361C30.636 30.4999 28.899 30.3795 27 30.375C10.125 30.375 6.75 40.5 6.75 43.875C6.75 47.25 10.125 47.25 10.125 47.25H27.864Z" fill="#F36A6A"/>
</svg>
