<svg width="65" height="54" viewBox="0 0 65 54" fill="none" xmlns="http://www.w3.org/2000/svg">
<g clip-path="url(#clip0_249_236)">
<path d="M27 27C29.6853 27 32.2607 25.9333 34.1595 24.0345C36.0583 22.1356 37.125 19.5603 37.125 16.875C37.125 14.1897 36.0583 11.6143 34.1595 9.71554C32.2607 7.81674 29.6853 6.75 27 6.75C24.3147 6.75 21.7394 7.81674 19.8405 9.71554C17.9417 11.6143 16.875 14.1897 16.875 16.875C16.875 19.5603 17.9417 22.1356 19.8405 24.0345C21.7394 25.9333 24.3147 27 27 27ZM33.75 16.875C33.75 18.6652 33.0388 20.3821 31.773 21.648C30.5071 22.9138 28.7902 23.625 27 23.625C25.2098 23.625 23.4929 22.9138 22.227 21.648C20.9612 20.3821 20.25 18.6652 20.25 16.875C20.25 15.0848 20.9612 13.3679 22.227 12.102C23.4929 10.8362 25.2098 10.125 27 10.125C28.7902 10.125 30.5071 10.8362 31.773 12.102C33.0388 13.3679 33.75 15.0848 33.75 16.875ZM47.25 43.875C47.25 47.25 43.875 47.25 43.875 47.25H10.125C10.125 47.25 6.75 47.25 6.75 43.875C6.75 40.5 10.125 30.375 27 30.375C43.875 30.375 47.25 40.5 47.25 43.875ZM43.875 43.8615C43.8716 43.0312 43.3553 40.5337 41.067 38.2455C38.8665 36.045 34.7254 33.75 27 33.75C19.2746 33.75 15.1335 36.045 12.933 38.2455C10.6448 40.5337 10.1318 43.0312 10.125 43.8615H43.875Z" fill="#F25555"/>
<rect x="39" y="28" width="27" height="27" rx="13.5" fill="white"/>
</g>
<g clip-path="url(#clip1_249_236)">
<path d="M53 30C49.8174 30 46.7652 31.2643 44.5147 33.5147C42.2643 35.7652 41 38.8174 41 42C41 45.1826 42.2643 48.2348 44.5147 50.4853C46.7652 52.7357 49.8174 54 53 54C56.1826 54 59.2348 52.7357 61.4853 50.4853C63.7357 48.2348 65 45.1826 65 42C65 38.8174 63.7357 35.7652 61.4853 33.5147C59.2348 31.2643 56.1826 30 53 30ZM44.06 36.489C44.5475 38.4825 47.858 40.299 49.6355 41.274C50.3555 41.6685 50.825 41.925 50.75 42C50.629 42.12 50.508 42.237 50.387 42.351C49.763 42.945 49.2065 43.4745 49.25 44.25C49.3025 45.201 50.177 45.486 51.071 45.7755C51.9365 46.0575 52.823 46.3455 53 47.25C53.123 47.8755 52.8875 48.732 52.67 49.53C52.3475 50.703 52.061 51.75 53 51.75C55.25 51 58.697 46.971 59 44.25C59.207 42.3855 56 41.25 53.75 40.5C53.033 40.26 52.6175 40.6215 52.265 40.926C52.007 41.151 51.782 41.3445 51.5 41.25C50.8325 41.028 47.75 38.25 49.25 37.5C50.42 36.915 50.678 37.2435 51.0905 37.773C51.2075 37.9215 51.335 38.085 51.5 38.25C52.4135 38.706 52.493 38.052 52.5845 37.3005C52.643 36.8175 52.706 36.294 53 36C53.651 35.349 54.8975 34.8135 56.042 34.32C57.11 33.861 58.0895 33.4395 58.4105 33C60.1943 34.0727 61.6191 35.6514 62.5038 37.5355C63.3885 39.4197 63.6933 41.5243 63.3793 43.582C63.0654 45.6397 62.1469 47.5577 60.7406 49.0923C59.3343 50.6269 57.5036 51.7089 55.481 52.2009C53.4585 52.6928 51.3353 52.5725 49.3813 51.8553C47.4272 51.138 45.7305 49.8561 44.5065 48.1725C43.2825 46.4888 42.5866 44.4794 42.5071 42.3994C42.4276 40.3194 42.9681 38.2612 44.06 36.489Z" fill="#F25555"/>
</g>
<defs>
<clipPath id="clip0_249_236">
<rect width="54" height="54" fill="white"/>
</clipPath>
<clipPath id="clip1_249_236">
<rect width="24" height="24" fill="white" transform="translate(41 30)"/>
</clipPath>
</defs>
</svg>
