<svg width="74" height="74" viewBox="0 0 74 74" fill="none" xmlns="http://www.w3.org/2000/svg">
<path d="M20.7429 25.7148C23.9869 25.7148 26.6166 23.085 26.6166 19.841C26.6166 16.5971 23.9869 13.9673 20.7429 13.9673C17.4989 13.9673 14.8691 16.5971 14.8691 19.841C14.8691 23.085 17.4989 25.7148 20.7429 25.7148Z" stroke="#BC9061" stroke-width="3" stroke-linecap="round"/>
<path d="M14.1295 63.5937L14.2683 49.9846C14.2685 49.6769 14.2037 49.3726 14.0782 49.0917C13.9526 48.8107 13.7692 48.5595 13.5398 48.3543L11.3545 46.4465C11.2432 46.3404 11.1541 46.2131 11.0926 46.0722C11.031 45.9312 10.9982 45.7794 10.9961 45.6256V32.6524C10.9961 32.0698 11.2275 31.511 11.6395 31.099C12.0515 30.687 12.6103 30.4556 13.193 30.4556H27.2067C28.0787 30.4586 28.9139 30.8072 29.5294 31.4248C30.1449 32.0425 30.4905 32.8789 30.4905 33.7509V45.6834C30.4908 45.9633 30.3831 46.2325 30.1898 46.4349L28.0855 48.6781C27.7032 49.0848 27.4921 49.623 27.4958 50.1812L27.357 63.5937" stroke="#BC9061" stroke-width="3" stroke-linecap="round"/>
<path d="M49.58 63.5935V52.7017C49.58 52.395 49.4582 52.1009 49.2413 51.8841C49.0245 51.6672 48.7304 51.5454 48.4238 51.5454H45.6372C45.4539 51.5429 45.2739 51.4968 45.112 51.411C44.95 51.3251 44.8108 51.2021 44.7057 51.0519C44.6007 50.9017 44.5329 50.7286 44.5079 50.5471C44.4829 50.3655 44.5014 50.1806 44.5619 50.0076L51.1409 32.0626C51.2229 31.8431 51.3697 31.6538 51.5617 31.5195C51.7537 31.3853 51.982 31.3126 52.2163 31.311H59.1538C59.3914 31.3111 59.6232 31.3844 59.8177 31.521C60.0122 31.6575 60.1598 31.8507 60.2406 32.0742L66.6809 50.0076C66.7417 50.1815 66.7601 50.3675 66.7345 50.5499C66.7089 50.7324 66.64 50.9061 66.5337 51.0565C66.4274 51.207 66.2866 51.3298 66.1232 51.4149C65.9597 51.4999 65.7783 51.5447 65.5941 51.5454H62.6456C62.339 51.5454 62.0449 51.6672 61.828 51.8841C61.6112 52.1009 61.4894 52.395 61.4894 52.7017V63.5935" stroke="#BC9061" stroke-width="3" stroke-linecap="round"/>
<path d="M55.6154 25.7148C58.8594 25.7148 61.4892 23.085 61.4892 19.841C61.4892 16.5971 58.8594 13.9673 55.6154 13.9673C52.3715 13.9673 49.7417 16.5971 49.7417 19.841C49.7417 23.085 52.3715 25.7148 55.6154 25.7148Z" stroke="#BC9061" stroke-width="3" stroke-linecap="round"/>
<path d="M29.5768 11.6434C29.4361 10.982 29.4422 10.2979 29.5945 9.6392C29.7468 8.98047 30.0417 8.36314 30.4584 7.8307C30.8751 7.29826 31.4034 6.86366 32.0062 6.55749C32.6091 6.25133 33.2717 6.08106 33.9474 6.05867C36.5721 5.85054 37.8787 9.0071 38.1215 9.61992C38.1215 9.68929 38.1793 9.68929 38.214 9.61992C39.6015 6.35929 41.6827 6.15117 42.4227 6.07023C44.5155 5.8621 47.3137 7.46929 46.7355 11.2502C45.9262 16.488 38.0984 22.3849 38.0984 22.3849C38.0984 22.3849 30.6059 17.3437 29.5768 11.6434Z" stroke="#BC9061" stroke-width="3"/>
<rect x="28.2956" y="20.539" width="26.8258" height="3.77413" transform="rotate(-40 28.2956 20.539)" fill="#BC9061" stroke="white"/>
</svg>
