<svg width="57" height="57" viewBox="0 0 57 57" fill="none" xmlns="http://www.w3.org/2000/svg">
<path d="M45.8313 43.9921L49.9076 13.2205L40.0606 0H16.5246L6.67744 13.2205L10.7537 43.9921H6.33789V57H50.6623V55.3428V43.9921H45.8313ZM10.14 14.1204L18.1881 3.31446H38.397L46.4452 14.1204L42.4887 43.9921H14.0972L10.14 14.1204ZM9.65235 47.3055H47.3478V53.6865H9.65235V47.3055Z" fill="#BC9061"/>
<path d="M20.9234 23.2329C21.9586 22.7771 22.5952 21.8236 22.5952 20.6213C22.5952 18.9077 21.3239 17.7056 19.4034 17.7056H15.6586C15.5751 17.7056 15.5205 17.7609 15.5205 17.8445V26.9633C15.5205 27.0469 15.5751 27.1022 15.6586 27.1022H17.4139C17.4965 27.1022 17.5519 27.0469 17.5519 26.9633V23.6061L17.6345 23.5235H18.8923L20.5086 26.9632C20.5504 27.0604 20.5912 27.1021 20.7156 27.1021H22.6778C22.7741 27.1021 22.8158 27.0195 22.7741 26.9359L20.9234 23.2329ZM19.2924 21.7954H17.6343L17.5517 21.7137V19.5435L17.6343 19.4609H19.2924C20.0661 19.4609 20.5638 19.9167 20.5638 20.6214C20.5638 21.3396 20.0661 21.7954 19.2924 21.7954Z" fill="#BC9061"/>
<path d="M38.9166 17.7056H35.2698C35.1863 17.7056 35.1309 17.7609 35.1309 17.8445V26.9633C35.1309 27.0469 35.1863 27.1022 35.2698 27.1022H37.0242C37.1068 27.1022 37.1632 27.0469 37.1632 26.9633V23.8268L37.2458 23.7442H38.9166C40.9489 23.7442 42.192 22.5001 42.192 20.7321C42.192 18.936 40.9623 17.7056 38.9166 17.7056ZM38.793 21.9888H37.2456L37.163 21.9062V19.5434L37.2456 19.4608H38.793C39.6502 19.4608 40.1614 19.972 40.1614 20.7319C40.1614 21.4912 39.6502 21.9888 38.793 21.9888Z" fill="#BC9061"/>
<path d="M25.8578 25.167H24.2132C24.1306 25.167 24.0752 25.2223 24.0752 25.3059V26.9632C24.0752 27.0468 24.1306 27.1021 24.2132 27.1021H25.8578C25.9404 27.1021 25.9958 27.0468 25.9958 26.9632V25.3059C25.9958 25.2223 25.9404 25.167 25.8578 25.167Z" fill="#BC9061"/>
<path d="M29.617 17.7056H27.8617C27.7782 17.7056 27.7236 17.7609 27.7236 17.8445V26.9633C27.7236 27.0469 27.7782 27.1022 27.8617 27.1022H29.617C29.6987 27.1022 29.755 27.0469 29.755 26.9633V17.8445C29.7551 17.7609 29.6987 17.7056 29.617 17.7056Z" fill="#BC9061"/>
<path d="M33.2654 25.167H31.62C31.5382 25.167 31.4829 25.2223 31.4829 25.3059V26.9632C31.4829 27.0468 31.5384 27.1021 31.62 27.1021H33.2654C33.348 27.1021 33.4034 27.0468 33.4034 26.9632V25.3059C33.4034 25.2223 33.348 25.167 33.2654 25.167Z" fill="#BC9061"/>
</svg>
