<svg width="57" height="57" viewBox="0 0 57 57" fill="none" xmlns="http://www.w3.org/2000/svg">
<g clip-path="url(#clip0_46_149)">
<path d="M23.75 30.8755C25.0617 30.8755 26.125 29.8122 26.125 28.5005C26.125 27.189 25.0617 26.1255 23.75 26.1255C22.4383 26.1255 21.375 27.189 21.375 28.5005C21.375 29.8122 22.4383 30.8755 23.75 30.8755Z" fill="#BC9061"/>
<path d="M35.625 28.5005C35.625 29.8122 34.5617 30.8755 33.25 30.8755C31.9383 30.8755 30.875 29.8122 30.875 28.5005C30.875 27.189 31.9383 26.1255 33.25 26.1255C34.5617 26.1255 35.625 27.189 35.625 28.5005Z" fill="#BC9061"/>
<path d="M19.6958 36.321C20.6153 35.4017 22.1013 35.3936 23.0305 36.2975C23.3818 36.6105 23.8 36.8545 24.2185 37.0637C25.1155 37.5123 26.5356 38.0004 28.5002 38.0004C30.4648 38.0004 31.8848 37.5123 32.7818 37.0637C33.2003 36.8545 33.6185 36.6105 33.9698 36.2975C34.8991 35.3936 36.3849 35.4017 37.3045 36.321C38.232 37.2487 38.232 38.7523 37.3045 39.68C37.1221 39.8619 36.9366 40.0227 36.6048 40.2716C36.207 40.5699 35.6411 40.9447 34.906 41.3123C33.428 42.0512 31.2856 42.7504 28.5002 42.7504C25.7148 42.7504 23.5722 42.0512 22.0943 41.3123C21.3592 40.9447 20.7932 40.5699 20.3954 40.2716C20.0648 40.0237 19.8795 39.8626 19.6974 39.6817C18.7699 38.754 18.7683 37.2487 19.6958 36.321Z" fill="#BC9061"/>
<path fill-rule="evenodd" clip-rule="evenodd" d="M31.1828 6.65896C31.5756 7.35557 31.8362 8.35509 31.3433 9.66894C30.4112 9.55772 29.4621 9.50048 28.5 9.50048C18.0449 9.50048 9.16762 16.2562 5.9954 25.6404C2.55531 26.4719 0 29.5706 0 33.2661C0 36.9656 2.56096 40.0669 6.0068 40.8941C9.18885 50.2608 18.0574 57.0004 28.5 57.0004C38.9426 57.0004 47.8111 50.2608 50.9932 40.8941C54.439 40.0669 57 36.9656 57 33.2661C57 29.5706 54.4447 26.4719 51.0045 25.6404C48.6274 18.6082 43.0466 13.052 35.9988 10.7086C36.6916 8.3886 36.3643 6.17726 35.3205 4.32604C33.8739 1.76034 31.0626 0.000488281 28.5 0.000488281C26.2844 0.000488281 24.609 0.838735 23.5102 1.66347C22.9644 2.07304 22.5525 2.48444 22.2698 2.8031C22.1276 2.96334 22.0155 3.10297 21.9333 3.21117C21.099 4.30866 21.2372 5.93192 22.4352 6.72833C23.7068 7.57367 24.9337 6.95764 25.8227 5.9557C25.935 5.82904 26.116 5.64669 26.3615 5.4625C26.8449 5.09975 27.5443 4.75048 28.5 4.75048C29.1085 4.75048 30.4534 5.36539 31.1828 6.65896ZM47.338 36.8867L49.8845 36.2754C51.2437 35.9491 52.25 34.7191 52.25 33.2661C52.25 31.8145 51.2461 30.5856 49.8888 30.2576L47.3433 29.6425L46.5046 27.1616C43.965 19.6486 36.8567 14.2505 28.5 14.2505C20.1432 14.2505 13.0349 19.6486 10.4953 27.1616L9.65663 29.6425L7.11115 30.2576C5.75394 30.5856 4.75 31.8145 4.75 33.2661C4.75 34.7191 5.75619 35.9491 7.1156 36.2754L9.662 36.8867L10.5044 39.3662C13.0519 46.8653 20.1533 52.2504 28.5 52.2504C36.8467 52.2504 43.948 46.8653 46.4956 39.3662L47.338 36.8867Z" fill="#BC9061"/>
</g>
<defs>
<clipPath id="clip0_46_149">
<rect width="57" height="57" fill="white"/>
</clipPath>
</defs>
</svg>
