<svg width="66" height="88" viewBox="0 0 66 88" fill="none" xmlns="http://www.w3.org/2000/svg">
<path d="M55 0H11C8.08262 0 5.28472 1.15893 3.22182 3.22183C1.15892 5.28473 0 8.08262 0 11V77C0 79.9174 1.15892 82.7153 3.22182 84.7782C5.28472 86.8411 8.08262 88 11 88H55C57.9174 88 60.7153 86.8411 62.7782 84.7782C64.8411 82.7153 66 79.9174 66 77V11C66 8.08262 64.8411 5.28473 62.7782 3.22183C60.7153 1.15893 57.9174 0 55 0ZM16.5 22H49.5C50.2293 22 50.9288 22.2897 51.4445 22.8055C51.9603 23.3212 52.25 24.0207 52.25 24.75C52.25 25.4793 51.9603 26.1788 51.4445 26.6945C50.9288 27.2103 50.2293 27.5 49.5 27.5H16.5C15.7707 27.5 15.0712 27.2103 14.5555 26.6945C14.0397 26.1788 13.75 25.4793 13.75 24.75C13.75 24.0207 14.0397 23.3212 14.5555 22.8055C15.0712 22.2897 15.7707 22 16.5 22ZM13.75 35.75C13.75 35.0207 14.0397 34.3212 14.5555 33.8055C15.0712 33.2897 15.7707 33 16.5 33H49.5C50.2293 33 50.9288 33.2897 51.4445 33.8055C51.9603 34.3212 52.25 35.0207 52.25 35.75C52.25 36.4793 51.9603 37.1788 51.4445 37.6945C50.9288 38.2103 50.2293 38.5 49.5 38.5H16.5C15.7707 38.5 15.0712 38.2103 14.5555 37.6945C14.0397 37.1788 13.75 36.4793 13.75 35.75ZM16.5 44H49.5C50.2293 44 50.9288 44.2897 51.4445 44.8055C51.9603 45.3212 52.25 46.0207 52.25 46.75C52.25 47.4793 51.9603 48.1788 51.4445 48.6945C50.9288 49.2103 50.2293 49.5 49.5 49.5H16.5C15.7707 49.5 15.0712 49.2103 14.5555 48.6945C14.0397 48.1788 13.75 47.4793 13.75 46.75C13.75 46.0207 14.0397 45.3212 14.5555 44.8055C15.0712 44.2897 15.7707 44 16.5 44ZM16.5 55H33C33.7293 55 34.4288 55.2897 34.9445 55.8055C35.4603 56.3212 35.75 57.0207 35.75 57.75C35.75 58.4793 35.4603 59.1788 34.9445 59.6945C34.4288 60.2103 33.7293 60.5 33 60.5H16.5C15.7707 60.5 15.0712 60.2103 14.5555 59.6945C14.0397 59.1788 13.75 58.4793 13.75 57.75C13.75 57.0207 14.0397 56.3212 14.5555 55.8055C15.0712 55.2897 15.7707 55 16.5 55Z" fill="white"/>
</svg>
