<svg width="69" height="69" viewBox="0 0 69 69" fill="none" xmlns="http://www.w3.org/2000/svg">
<rect x="13" y="18" width="16" height="16" rx="8" fill="#71C76C"/>
<path d="M8.625 8.625C6.33751 8.625 4.14371 9.5337 2.5262 11.1512C0.908703 12.7687 0 14.9625 0 17.25L0 51.75C0 54.0375 0.908703 56.2313 2.5262 57.8488C4.14371 59.4663 6.33751 60.375 8.625 60.375H60.375C62.6625 60.375 64.8563 59.4663 66.4738 57.8488C68.0913 56.2313 69 54.0375 69 51.75V17.25C69 14.9625 68.0913 12.7687 66.4738 11.1512C64.8563 9.5337 62.6625 8.625 60.375 8.625H8.625ZM4.3125 17.25C4.3125 16.1063 4.76685 15.0094 5.5756 14.2006C6.38435 13.3919 7.48125 12.9375 8.625 12.9375H60.375C61.5187 12.9375 62.6156 13.3919 63.4244 14.2006C64.2331 15.0094 64.6875 16.1063 64.6875 17.25V51.75C64.6875 52.8937 64.2331 53.9906 63.4244 54.7994C62.6156 55.6081 61.5187 56.0625 60.375 56.0625H38.64C38.755 55.3581 38.8125 54.6394 38.8125 53.9062C38.8125 45.5702 31.0931 38.8125 21.5625 38.8125C12.5666 38.8125 5.175 44.8414 4.3815 52.5306C4.33486 52.273 4.31176 52.0117 4.3125 51.75V17.25Z" fill="#71C76C"/>
<rect x="38" y="26.5356" width="5" height="22" transform="rotate(-45 38 26.5356)" fill="#71C76C"/>
<rect x="53.5562" y="23" width="5" height="22" transform="rotate(45 53.5562 23)" fill="#71C76C"/>
</svg>
