<svg width="46" height="60" viewBox="0 0 46 60" fill="none" xmlns="http://www.w3.org/2000/svg">
<path d="M26.25 0H7C5.14348 0 3.36301 0.737498 2.05025 2.05025C0.737498 3.36301 0 5.14348 0 7V49C0 50.8565 0.737498 52.637 2.05025 53.9497C3.36301 55.2625 5.14348 56 7 56H35C36.8565 56 38.637 55.2625 39.9497 53.9497C41.2625 52.637 42 50.8565 42 49V15.75L26.25 0ZM26.25 3.5V10.5C26.25 11.8924 26.8031 13.2277 27.7877 14.2123C28.7723 15.1969 30.1076 15.75 31.5 15.75H38.5V49C38.5 49.9283 38.1312 50.8185 37.4749 51.4749C36.8185 52.1312 35.9283 52.5 35 52.5H7C6.07174 52.5 5.1815 52.1312 4.52513 51.4749C3.86875 50.8185 3.5 49.9283 3.5 49V7C3.5 6.07174 3.86875 5.1815 4.52513 4.52513C5.1815 3.86875 6.07174 3.5 7 3.5H26.25Z" fill="#F25555"/>
<path d="M40.3145 40.4258L23.1934 57.2744C23.1075 57.3582 23.0021 57.4223 22.8857 57.46H22.8828L16.6885 59.4922C16.6624 59.5007 16.6343 59.5023 16.6074 59.4961C16.5805 59.4898 16.5562 59.4768 16.5381 59.459C16.5202 59.4413 16.5083 59.4197 16.5029 59.3975C16.4976 59.3752 16.4985 59.351 16.5059 59.3291L18.5723 53.2354C18.61 53.1236 18.674 53.0209 18.7598 52.9365L35.8945 36.0771L40.3145 40.4258ZM41.293 31.0879C41.5032 31.0879 41.7033 31.1706 41.8496 31.3145L45.168 34.5791L45.4043 34.8115C45.3983 34.9672 45.3936 35.0746 45.3936 35.1162C45.3935 35.2654 45.3485 35.4111 45.2646 35.5352L45.168 35.6514L42.8408 37.9414L38.4209 33.5928L40.7363 31.3135C40.8825 31.1698 41.0829 31.088 41.293 31.0879Z" fill="#F25555" stroke="white"/>
<path d="M11.75 21C11.2859 21 10.8408 21.1844 10.5126 21.5126C10.1844 21.8408 10 22.2859 10 22.75C10 23.2141 10.1844 23.6592 10.5126 23.9874C10.8408 24.3156 11.2859 24.5 11.75 24.5H29.25C29.7141 24.5 30.1593 24.3156 30.4874 23.9874C30.8156 23.6592 31 23.2141 31 22.75C31 22.2859 30.8156 21.8408 30.4874 21.5126C30.1593 21.1844 29.7141 21 29.25 21H11.75ZM10 29.75C10 29.2859 10.1844 28.8408 10.5126 28.5126C10.8408 28.1844 11.2859 28 11.75 28H29.25C29.7141 28 30.1593 28.1844 30.4874 28.5126C30.8156 28.8408 31 29.2859 31 29.75C31 30.2141 30.8156 30.6592 30.4874 30.9874C30.1593 31.3156 29.7141 31.5 29.25 31.5H11.75C11.2859 31.5 10.8408 31.3156 10.5126 30.9874C10.1844 30.6592 10 30.2141 10 29.75ZM10 36.75C10 36.2859 10.1844 35.8408 10.5126 35.5126C10.8408 35.1844 11.2859 35 11.75 35H18.75C19.2141 35 19.6592 35.1844 19.9874 35.5126C20.3156 35.8408 20.5 36.2859 20.5 36.75C20.5 37.2141 20.3156 37.6593 19.9874 37.9874C19.6592 38.3156 19.2141 38.5 18.75 38.5H11.75C11.2859 38.5 10.8408 38.3156 10.5126 37.9874C10.1844 37.6593 10 37.2141 10 36.75Z" fill="#F25555"/>
</svg>
