<svg width="57" height="57" viewBox="0 0 57 57" fill="none" xmlns="http://www.w3.org/2000/svg">
<g clip-path="url(#clip0_254_238)">
<path d="M41.8307 36.8505C45.2802 32.1433 46.8252 26.3072 46.1566 20.5098C45.488 14.7124 42.6551 9.38126 38.2246 5.58289C33.7941 1.78452 28.0928 -0.200921 22.2613 0.0237776C16.4298 0.248476 10.8981 2.66674 6.77305 6.79478C2.64797 10.9228 0.233661 16.4562 0.0131353 22.2878C-0.20739 28.1195 1.78213 33.8194 5.58367 38.2472C9.38521 42.6749 14.7184 45.5041 20.5163 46.1685C26.3142 46.833 32.1491 45.2838 36.8538 41.8309H36.8503C36.9548 41.9734 37.0712 42.1099 37.1994 42.2406L50.915 55.9562C51.583 56.6246 52.4892 57.0004 53.4342 57.0007C54.3793 57.001 55.2857 56.626 55.9542 55.958C56.6227 55.29 56.9984 54.3838 56.9987 53.4388C56.9991 52.4937 56.624 51.5873 55.956 50.9188L42.2403 37.2032C42.113 37.0742 41.9761 36.9586 41.8307 36.8505ZM42.7498 23.1562C42.7498 25.7293 42.243 28.2772 41.2583 30.6544C40.2736 33.0317 38.8304 35.1917 37.0109 37.0111C35.1915 38.8306 33.0315 40.2738 30.6542 41.2585C28.277 42.2432 25.7291 42.75 23.156 42.75C20.5829 42.75 18.0351 42.2432 15.6578 41.2585C13.2806 40.2738 11.1206 38.8306 9.30116 37.0111C7.48171 35.1917 6.03844 33.0317 5.05377 30.6544C4.06909 28.2772 3.56228 25.7293 3.56228 23.1562C3.56228 17.9597 5.62662 12.9759 9.30116 9.30137C12.9757 5.62683 17.9594 3.56249 23.156 3.56249C28.3526 3.56249 33.3364 5.62683 37.0109 9.30137C40.6854 12.9759 42.7498 17.9597 42.7498 23.1562Z" fill="#71C76C"/>
</g>
<path d="M17.75 23C18.6783 23 19.5685 22.6313 20.2249 21.9749C20.8813 21.3185 21.25 20.4283 21.25 19.5C21.25 18.5717 20.8813 17.6815 20.2249 17.0251C19.5685 16.3687 18.6783 16 17.75 16C16.8217 16 15.9315 16.3687 15.2751 17.0251C14.6187 17.6815 14.25 18.5717 14.25 19.5C14.25 20.4283 14.6187 21.3185 15.2751 21.9749C15.9315 22.6313 16.8217 23 17.75 23ZM24.75 18.625C24.75 18.3929 24.8422 18.1704 25.0063 18.0063C25.1704 17.8422 25.3929 17.75 25.625 17.75H32.625C32.8571 17.75 33.0796 17.8422 33.2437 18.0063C33.4078 18.1704 33.5 18.3929 33.5 18.625C33.5 18.8571 33.4078 19.0796 33.2437 19.2437C33.0796 19.4078 32.8571 19.5 32.625 19.5H25.625C25.3929 19.5 25.1704 19.4078 25.0063 19.2437C24.8422 19.0796 24.75 18.8571 24.75 18.625ZM24.75 23C24.75 22.7679 24.8422 22.5454 25.0063 22.3813C25.1704 22.2172 25.3929 22.125 25.625 22.125H32.625C32.8571 22.125 33.0796 22.2172 33.2437 22.3813C33.4078 22.5454 33.5 22.7679 33.5 23C33.5 23.2321 33.4078 23.4546 33.2437 23.6187C33.0796 23.7828 32.8571 23.875 32.625 23.875H25.625C25.3929 23.875 25.1704 23.7828 25.0063 23.6187C24.8422 23.4546 24.75 23.2321 24.75 23ZM26.5 27.375C26.5 27.1429 26.5922 26.9204 26.7563 26.7563C26.9204 26.5922 27.1429 26.5 27.375 26.5H32.625C32.8571 26.5 33.0796 26.5922 33.2437 26.7563C33.4078 26.9204 33.5 27.1429 33.5 27.375C33.5 27.6071 33.4078 27.8296 33.2437 27.9937C33.0796 28.1578 32.8571 28.25 32.625 28.25H27.375C27.1429 28.25 26.9204 28.1578 26.7563 27.9937C26.5922 27.8296 26.5 27.6071 26.5 27.375Z" fill="#71C76C"/>
<path d="M12.5 12.5C11.5717 12.5 10.6815 12.8687 10.0251 13.5251C9.36875 14.1815 9 15.0717 9 16V30C9 30.9283 9.36875 31.8185 10.0251 32.4749C10.6815 33.1313 11.5717 33.5 12.5 33.5H33.5C34.4283 33.5 35.3185 33.1313 35.9749 32.4749C36.6313 31.8185 37 30.9283 37 30V16C37 15.0717 36.6313 14.1815 35.9749 13.5251C35.3185 12.8687 34.4283 12.5 33.5 12.5H12.5ZM10.75 16C10.75 15.5359 10.9344 15.0908 11.2626 14.7626C11.5908 14.4344 12.0359 14.25 12.5 14.25H33.5C33.9641 14.25 34.4092 14.4344 34.7374 14.7626C35.0656 15.0908 35.25 15.5359 35.25 16V30C35.25 30.4641 35.0656 30.9092 34.7374 31.2374C34.4092 31.5656 33.9641 31.75 33.5 31.75H24.68C24.7267 31.4642 24.75 31.1725 24.75 30.875C24.75 27.4923 21.6175 24.75 17.75 24.75C14.0995 24.75 11.1 27.1965 10.778 30.3167C10.7591 30.2122 10.7497 30.1062 10.75 30V16Z" fill="#71C76C"/>
<defs>
<clipPath id="clip0_254_238">
<rect width="57" height="57" fill="white"/>
</clipPath>
</defs>
</svg>
