<svg width="128" height="128" viewBox="0 0 128 128" fill="none" xmlns="http://www.w3.org/2000/svg">
<path fill-rule="evenodd" clip-rule="evenodd" d="M40.0004 54C45.155 54 49.3337 49.8213 49.3337 44.6666C49.3337 39.512 45.155 35.3333 40.0004 35.3333C34.8457 35.3333 30.667 39.512 30.667 44.6666C30.667 49.8213 34.8457 54 40.0004 54ZM33.3337 58C31.9961 58 30.7473 58.6685 30.0054 59.781L19.3387 75.781C18.1133 77.6192 18.61 80.1026 20.4481 81.3282C22.2862 82.5536 24.7697 82.0568 25.9951 80.2189L29.3337 75.2112V99.3333C29.3337 101.542 31.1244 103.333 33.3337 103.333C35.5428 103.333 37.3337 101.542 37.3337 99.3333V86H42.667V99.3333C42.667 101.542 44.4577 103.333 46.667 103.333C48.8761 103.333 50.667 101.542 50.667 99.3333V75.2112L54.0054 80.2189C55.2308 82.0568 57.7142 82.5536 59.5524 81.3282C61.3905 80.1026 61.8873 77.6192 60.6617 75.781L49.995 59.781C49.2532 58.6685 48.0044 58 46.667 58H33.3337Z" fill="white"/>
<path fill-rule="evenodd" clip-rule="evenodd" d="M98.667 27.748C98.667 26.9541 97.7587 26.4315 96.9721 26.7731L88.0003 30.6667L79.0283 26.7731C78.2419 26.4315 77.3337 26.9541 77.3337 27.748V33.5853C77.3337 34.3795 78.2419 34.9016 79.0283 34.5605L88.0003 30.6667L96.9721 34.5605C97.7587 34.9016 98.667 34.3795 98.667 33.5853V27.748ZM88.0003 54C93.155 54 97.3336 49.8213 97.3336 44.6667C97.3336 39.512 93.155 35.3333 88.0003 35.3333C82.8456 35.3333 78.667 39.512 78.667 44.6667C78.667 49.8213 82.8456 54 88.0003 54ZM81.3337 58C79.9961 58 78.7473 58.6685 78.0054 59.7811L67.3387 75.7811C66.1134 77.6192 66.6099 80.1027 68.4481 81.3283C70.2862 82.5536 72.7697 82.0568 73.995 80.2189L77.3337 75.2112V80L72.0003 90.6667H77.3337V99.3333C77.3337 101.542 79.1243 103.333 81.3337 103.333C83.5427 103.333 85.3336 101.542 85.3336 99.3333V90.6667H90.667V99.3333C90.667 101.542 92.4576 103.333 94.667 103.333C96.876 103.333 98.667 101.542 98.667 99.3333V90.6667H104L98.667 80V75.2112L102.005 80.2189C103.231 82.0568 105.714 82.5536 107.552 81.3283C109.39 80.1027 109.887 77.6192 108.662 75.7811L97.995 59.7811C97.2531 58.6685 96.0043 58 94.667 58H81.3337Z" fill="white"/>
</svg>
