<svg width="102" height="103" viewBox="0 0 102 103" fill="none" xmlns="http://www.w3.org/2000/svg">
<path d="M89.2102 49.5285C91.7602 49.5285 93.7923 47.4363 93.7923 44.8613C93.7923 42.2863 91.7204 40.1942 89.2102 40.1942C86.6602 40.1942 84.5884 42.2863 84.5884 44.8613C84.5884 47.4363 86.6602 49.5285 89.2102 49.5285Z" fill="white"/>
<path d="M57.5742 23.8992C61.2 23.8992 64.1484 20.9219 64.1484 17.2606C64.1484 13.5992 61.2 10.6219 57.5742 10.6219C53.9484 10.6219 51 13.5992 51 17.2606C51 20.9219 53.9484 23.8992 57.5742 23.8992Z" fill="white"/>
<path d="M20.679 23.9395C24.3446 23.9395 27.3329 20.9621 27.3329 17.2606C27.3329 13.559 24.3446 10.5817 20.679 10.5817C17.0133 10.5817 14.0251 13.559 14.0251 17.2606C13.9852 20.9621 16.9735 23.9395 20.679 23.9395Z" fill="white"/>
<path d="M82.9547 89.6824C82.9547 91.1711 84.1898 92.4183 85.664 92.4183C87.1383 92.4183 88.3734 91.2113 88.3734 89.6824V73.3875H90.4851V89.6824C90.4851 91.1711 91.6804 92.4183 93.1945 92.4183C94.6687 92.4183 95.9039 91.2113 95.9039 89.6824V59.1848H97.9758V69.525C97.9758 70.6516 98.8922 71.5769 99.9679 71.5769C101.084 71.5769 101.96 70.6516 101.96 69.525V57.7766C101.96 54.4773 99.0914 51.8219 95.8242 51.8219C95.8242 51.8219 83.3133 51.8219 83.2734 51.8219L79.2492 51.4195L74.0695 33.1129C71.9578 25.75 65.8617 25.9512 65.8617 25.9512H49.0078C49.0078 25.9512 42.9117 25.7098 40.8 33.1129L38.0906 42.6887L35.3812 33.1129C33.2695 25.75 27.1734 25.9914 27.1734 25.9914H14.1445C14.1445 25.9914 8.00857 25.75 5.9367 33.1531L0.677325 51.5805C0.159357 53.3105 0.996075 54.9199 2.51014 55.3625C3.98436 55.8051 5.61795 54.759 6.01639 53.3508L11.1164 35.366H13.6265L6.17576 66.5074H12.75V88.6363C12.75 90.4469 14.1844 91.9355 16.0172 91.9355C17.8101 91.9355 19.2844 90.4469 19.2844 88.6363V66.5074H22.0336V88.6363C22.0336 90.4469 23.5078 91.9355 25.3008 91.9355C27.0937 91.9355 28.5679 90.4469 28.5679 88.6363V66.5074H35.0625L27.6914 35.366H30.1617L35.2617 53.3508C35.6203 54.5578 36.6961 55.5234 37.9711 55.4027C39.2461 55.5234 40.5609 54.5578 40.8797 53.3508L45.9797 35.366H48.2906V87.9926C48.2906 90.125 50.0437 91.8551 52.1554 91.8551C54.2672 91.8551 56.0203 90.125 56.0203 87.9926V58.0582H58.8492V87.9926C58.8492 90.125 60.5625 91.8551 62.714 91.8551C64.8258 91.8551 66.5789 90.125 66.5789 87.9926V35.366H69.089L73.8305 52.7473C74.1094 53.7934 75.1851 54.7992 76.3406 55.1613L82.9547 57.0121V89.6824Z" fill="white"/>
</svg>
