<svg width="115" height="115" viewBox="0 0 115 115" fill="none" xmlns="http://www.w3.org/2000/svg">
<path d="M95.8333 19.1667H19.1666C13.8814 19.1667 9.58325 23.4648 9.58325 28.75V86.25C9.58325 91.5352 13.8814 95.8334 19.1666 95.8334H95.8333C101.118 95.8334 105.417 91.5352 105.417 86.25V28.75C105.417 23.4648 101.118 19.1667 95.8333 19.1667ZM41.7593 38.3334C47.2745 38.3334 51.3426 42.4015 51.3426 47.9167C51.3426 53.4319 47.2745 57.5 41.7593 57.5C36.2441 57.5 32.176 53.4319 32.176 47.9167C32.176 42.4015 36.2393 38.3334 41.7593 38.3334ZM59.5603 76.6667H23.9583V74.4386C23.9583 67.8596 31.9891 61.0938 41.7593 61.0938C51.5295 61.0938 59.5603 67.8596 59.5603 74.4386V76.6667ZM91.0416 71.875H71.8749V62.2917H91.0416V71.875ZM91.0416 52.7084H67.0833V43.125H91.0416V52.7084Z" fill="white"/>
</svg>
