<svg width="79" height="90" viewBox="0 0 79 90" fill="none" xmlns="http://www.w3.org/2000/svg">
<path d="M59.0625 0.824036V19.6875H77.9259L59.0625 0.824036Z" fill="white"/>
<path d="M57.6562 22.5C56.8786 22.5 56.25 21.8714 56.25 21.0938V0H5.625C2.51578 0 0 2.51578 0 5.625V84.375C0 87.4842 2.51578 90 5.625 90H73.125C76.2342 90 78.75 87.4842 78.75 84.375V22.5H57.6562ZM15.4688 25.3125H37.9688C38.7464 25.3125 39.375 25.9411 39.375 26.7188C39.375 27.4964 38.7464 28.125 37.9688 28.125H15.4688C14.6911 28.125 14.0625 27.4964 14.0625 26.7188C14.0625 25.9411 14.6911 25.3125 15.4688 25.3125ZM63.2812 71.7188H15.4688C14.6911 71.7188 14.0625 71.0902 14.0625 70.3125C14.0625 69.5348 14.6911 68.9062 15.4688 68.9062H63.2812C64.0589 68.9062 64.6875 69.5348 64.6875 70.3125C64.6875 71.0902 64.0589 71.7188 63.2812 71.7188ZM63.2812 63.2812H15.4688C14.6911 63.2812 14.0625 62.6527 14.0625 61.875C14.0625 61.0973 14.6911 60.4688 15.4688 60.4688H63.2812C64.0589 60.4688 64.6875 61.0973 64.6875 61.875C64.6875 62.6527 64.0589 63.2812 63.2812 63.2812ZM63.2812 54.8438H15.4688C14.6911 54.8438 14.0625 54.2152 14.0625 53.4375C14.0625 52.6598 14.6911 52.0312 15.4688 52.0312H63.2812C64.0589 52.0312 64.6875 52.6598 64.6875 53.4375C64.6875 54.2152 64.0589 54.8438 63.2812 54.8438ZM63.2812 46.4062H15.4688C14.6911 46.4062 14.0625 45.7777 14.0625 45C14.0625 44.2223 14.6911 43.5938 15.4688 43.5938H63.2812C64.0589 43.5938 64.6875 44.2223 64.6875 45C64.6875 45.7777 64.0589 46.4062 63.2812 46.4062ZM63.2812 37.9688H15.4688C14.6911 37.9688 14.0625 37.3402 14.0625 36.5625C14.0625 35.7848 14.6911 35.1562 15.4688 35.1562H63.2812C64.0589 35.1562 64.6875 35.7848 64.6875 36.5625C64.6875 37.3402 64.0589 37.9688 63.2812 37.9688Z" fill="white"/>
</svg>
