<svg width="62" height="62" viewBox="0 0 62 62" fill="none" xmlns="http://www.w3.org/2000/svg">
<path d="M20.6562 23.5625C20.3993 23.5625 20.1529 23.6646 19.9712 23.8462C19.7896 24.0279 19.6875 24.2743 19.6875 24.5312C19.6875 24.7882 19.7896 25.0346 19.9712 25.2163C20.1529 25.3979 20.3993 25.5 20.6562 25.5H30.3438C30.6007 25.5 30.8471 25.3979 31.0288 25.2163C31.2104 25.0346 31.3125 24.7882 31.3125 24.5312C31.3125 24.2743 31.2104 24.0279 31.0288 23.8462C30.8471 23.6646 30.6007 23.5625 30.3438 23.5625H20.6562ZM19.6875 28.4062C19.6875 28.1493 19.7896 27.9029 19.9712 27.7212C20.1529 27.5396 20.3993 27.4375 20.6562 27.4375H30.3438C30.6007 27.4375 30.8471 27.5396 31.0288 27.7212C31.2104 27.9029 31.3125 28.1493 31.3125 28.4062C31.3125 28.6632 31.2104 28.9096 31.0288 29.0913C30.8471 29.2729 30.6007 29.375 30.3438 29.375H20.6562C20.3993 29.375 20.1529 29.2729 19.9712 29.0913C19.7896 28.9096 19.6875 28.6632 19.6875 28.4062ZM19.6875 32.2812C19.6875 32.0243 19.7896 31.7779 19.9712 31.5962C20.1529 31.4146 20.3993 31.3125 20.6562 31.3125H24.5312C24.7882 31.3125 25.0346 31.4146 25.2163 31.5962C25.3979 31.7779 25.5 32.0243 25.5 32.2812C25.5 32.5382 25.3979 32.7846 25.2163 32.9663C25.0346 33.1479 24.7882 33.25 24.5312 33.25H20.6562C20.3993 33.25 20.1529 33.1479 19.9712 32.9663C19.7896 32.7846 19.6875 32.5382 19.6875 32.2812Z" fill="#F36A6A"/>
<path d="M28.4062 10H17.75C16.7223 10 15.7367 10.4083 15.01 11.135C14.2833 11.8617 13.875 12.8473 13.875 13.875V37.125C13.875 38.1527 14.2833 39.1383 15.01 39.865C15.7367 40.5917 16.7223 41 17.75 41H33.25C34.2777 41 35.2633 40.5917 35.99 39.865C36.7167 39.1383 37.125 38.1527 37.125 37.125V18.7188L28.4062 10ZM28.4062 11.9375V15.8125C28.4062 16.5833 28.7124 17.3225 29.2575 17.8675C29.8025 18.4126 30.5417 18.7188 31.3125 18.7188H35.1875V37.125C35.1875 37.6389 34.9834 38.1317 34.62 38.495C34.2567 38.8584 33.7639 39.0625 33.25 39.0625H17.75C17.2361 39.0625 16.7433 38.8584 16.38 38.495C16.0166 38.1317 15.8125 37.6389 15.8125 37.125V13.875C15.8125 13.3611 16.0166 12.8683 16.38 12.505C16.7433 12.1416 17.2361 11.9375 17.75 11.9375H28.4062Z" fill="#F36A6A"/>
<path d="M45.502 40.08C49.254 34.9593 50.9345 28.6107 50.2073 22.3041C49.48 15.9975 46.3987 10.1981 41.5798 6.06607C36.7608 1.93409 30.5596 -0.225738 24.2168 0.0186953C17.874 0.263129 11.8574 2.8938 7.37062 7.3844C2.88386 11.875 0.257865 17.8944 0.0180046 24.2382C-0.221856 30.5821 1.9421 36.7826 6.07696 41.5993C10.2118 46.416 16.0126 49.4936 22.3188 50.2164C28.6251 50.9392 34.9716 49.254 40.0888 45.4978H40.085C40.1986 45.6528 40.3252 45.8013 40.4647 45.9434L55.3829 60.8637C56.1095 61.5909 57.0951 61.9996 58.123 62C59.1509 62.0004 60.1368 61.5923 60.8639 60.8657C61.591 60.139 61.9996 59.1532 62 58.1252C62.0004 57.0972 61.5924 56.1111 60.8658 55.3839L45.9476 40.4636C45.8092 40.3233 45.6602 40.1976 45.502 40.08ZM46.5017 25.1829C46.5017 27.982 45.9505 30.7537 44.8795 33.3397C43.8085 35.9257 42.2387 38.2754 40.2597 40.2547C38.2807 42.2339 35.9313 43.804 33.3457 44.8751C30.76 45.9463 27.9887 46.4976 25.19 46.4976C22.3913 46.4976 19.6201 45.9463 17.0344 44.8751C14.4487 43.804 12.0994 42.2339 10.1204 40.2547C8.14141 38.2754 6.5716 35.9257 5.50059 33.3397C4.42958 30.7537 3.87833 27.982 3.87833 25.1829C3.87833 19.5299 6.12367 14.1084 10.1204 10.1112C14.1171 6.11387 19.5378 3.86822 25.19 3.86822C30.8422 3.86822 36.263 6.11387 40.2597 10.1112C44.2564 14.1084 46.5017 19.5299 46.5017 25.1829Z" fill="#F36A6A"/>
</svg>
