<svg width="56" height="56" viewBox="0 0 56 56" fill="none" xmlns="http://www.w3.org/2000/svg">
<path d="M19.25 24.5C18.7859 24.5 18.3408 24.6844 18.0126 25.0126C17.6844 25.3408 17.5 25.7859 17.5 26.25C17.5 26.7141 17.6844 27.1592 18.0126 27.4874C18.3408 27.8156 18.7859 28 19.25 28H36.75C37.2141 28 37.6593 27.8156 37.9874 27.4874C38.3156 27.1592 38.5 26.7141 38.5 26.25C38.5 25.7859 38.3156 25.3408 37.9874 25.0126C37.6593 24.6844 37.2141 24.5 36.75 24.5H19.25ZM17.5 33.25C17.5 32.7859 17.6844 32.3408 18.0126 32.0126C18.3408 31.6844 18.7859 31.5 19.25 31.5H36.75C37.2141 31.5 37.6593 31.6844 37.9874 32.0126C38.3156 32.3408 38.5 32.7859 38.5 33.25C38.5 33.7141 38.3156 34.1592 37.9874 34.4874C37.6593 34.8156 37.2141 35 36.75 35H19.25C18.7859 35 18.3408 34.8156 18.0126 34.4874C17.6844 34.1592 17.5 33.7141 17.5 33.25ZM17.5 40.25C17.5 39.7859 17.6844 39.3408 18.0126 39.0126C18.3408 38.6844 18.7859 38.5 19.25 38.5H26.25C26.7141 38.5 27.1592 38.6844 27.4874 39.0126C27.8156 39.3408 28 39.7859 28 40.25C28 40.7141 27.8156 41.1593 27.4874 41.4874C27.1592 41.8156 26.7141 42 26.25 42H19.25C18.7859 42 18.3408 41.8156 18.0126 41.4874C17.6844 41.1593 17.5 40.7141 17.5 40.25Z" fill="#F25555"/>
<path d="M33.25 0H14C12.1435 0 10.363 0.737498 9.05025 2.05025C7.7375 3.36301 7 5.14348 7 7V49C7 50.8565 7.7375 52.637 9.05025 53.9497C10.363 55.2625 12.1435 56 14 56H42C43.8565 56 45.637 55.2625 46.9497 53.9497C48.2625 52.637 49 50.8565 49 49V15.75L33.25 0ZM33.25 3.5V10.5C33.25 11.8924 33.8031 13.2277 34.7877 14.2123C35.7723 15.1969 37.1076 15.75 38.5 15.75H45.5V49C45.5 49.9283 45.1312 50.8185 44.4749 51.4749C43.8185 52.1312 42.9283 52.5 42 52.5H14C13.0717 52.5 12.1815 52.1312 11.5251 51.4749C10.8687 50.8185 10.5 49.9283 10.5 49V7C10.5 6.07174 10.8687 5.1815 11.5251 4.52513C12.1815 3.86875 13.0717 3.5 14 3.5H33.25Z" fill="#F25555"/>
</svg>
