<svg width="56" height="68" viewBox="0 0 56 68" fill="none" xmlns="http://www.w3.org/2000/svg">
<path d="M19.25 24.5C18.7859 24.5 18.3408 24.6844 18.0126 25.0126C17.6844 25.3408 17.5 25.7859 17.5 26.25C17.5 26.7141 17.6844 27.1592 18.0126 27.4874C18.3408 27.8156 18.7859 28 19.25 28H36.75C37.2141 28 37.6593 27.8156 37.9874 27.4874C38.3156 27.1592 38.5 26.7141 38.5 26.25C38.5 25.7859 38.3156 25.3408 37.9874 25.0126C37.6593 24.6844 37.2141 24.5 36.75 24.5H19.25ZM17.5 33.25C17.5 32.7859 17.6844 32.3408 18.0126 32.0126C18.3408 31.6844 18.7859 31.5 19.25 31.5H36.75C37.2141 31.5 37.6593 31.6844 37.9874 32.0126C38.3156 32.3408 38.5 32.7859 38.5 33.25C38.5 33.7141 38.3156 34.1592 37.9874 34.4874C37.6593 34.8156 37.2141 35 36.75 35H19.25C18.7859 35 18.3408 34.8156 18.0126 34.4874C17.6844 34.1592 17.5 33.7141 17.5 33.25ZM17.5 40.25C17.5 39.7859 17.6844 39.3408 18.0126 39.0126C18.3408 38.6844 18.7859 38.5 19.25 38.5H26.25C26.7141 38.5 27.1592 38.6844 27.4874 39.0126C27.8156 39.3408 28 39.7859 28 40.25C28 40.7141 27.8156 41.1593 27.4874 41.4874C27.1592 41.8156 26.7141 42 26.25 42H19.25C18.7859 42 18.3408 41.8156 18.0126 41.4874C17.6844 41.1593 17.5 40.7141 17.5 40.25Z" fill="#BC9061"/>
<path d="M33.25 0H14C12.1435 0 10.363 0.737498 9.05025 2.05025C7.7375 3.36301 7 5.14348 7 7V49C7 50.8565 7.7375 52.637 9.05025 53.9497C10.363 55.2625 12.1435 56 14 56H42C43.8565 56 45.637 55.2625 46.9497 53.9497C48.2625 52.637 49 50.8565 49 49V15.75L33.25 0ZM33.25 3.5V10.5C33.25 11.8924 33.8031 13.2277 34.7877 14.2123C35.7723 15.1969 37.1076 15.75 38.5 15.75H45.5V49C45.5 49.9283 45.1312 50.8185 44.4749 51.4749C43.8185 52.1312 42.9283 52.5 42 52.5H14C13.0717 52.5 12.1815 52.1312 11.5251 51.4749C10.8687 50.8185 10.5 49.9283 10.5 49V7C10.5 6.07174 10.8687 5.1815 11.5251 4.52513C12.1815 3.86875 13.0717 3.5 14 3.5H33.25Z" fill="#BC9061"/>
<path d="M44.6562 26.373C44.915 26.3731 45.1711 26.4244 45.4102 26.5234C45.6492 26.6225 45.8668 26.7672 46.0498 26.9502C46.2327 27.1332 46.3775 27.3508 46.4766 27.5898C46.5755 27.8289 46.627 28.085 46.627 28.3438C46.6269 28.6025 46.5756 28.8586 46.4766 29.0977C46.3775 29.3367 46.2328 29.5543 46.0498 29.7373L31.2842 44.5L46.0498 59.2627L46.1797 59.4062C46.3023 59.5557 46.4023 59.7231 46.4766 59.9023C46.5755 60.1414 46.627 60.3975 46.627 60.6562C46.6269 60.915 46.5756 61.1711 46.4766 61.4102C46.3775 61.6492 46.2328 61.8668 46.0498 62.0498C45.8668 62.2328 45.6492 62.3775 45.4102 62.4766C45.1711 62.5756 44.915 62.6269 44.6562 62.627C44.3975 62.627 44.1414 62.5755 43.9023 62.4766C43.7231 62.4023 43.5557 62.3023 43.4062 62.1797L43.2627 62.0498L28.5 47.2842L13.7373 62.0498C13.5543 62.2328 13.3367 62.3775 13.0977 62.4766C12.8586 62.5756 12.6025 62.6269 12.3438 62.627C12.085 62.627 11.8289 62.5755 11.5898 62.4766C11.3508 62.3775 11.1332 62.2327 10.9502 62.0498C10.7672 61.8668 10.6225 61.6492 10.5234 61.4102C10.4244 61.1711 10.3731 60.915 10.373 60.6562C10.373 60.3975 10.4244 60.1414 10.5234 59.9023C10.6225 59.6633 10.7672 59.4457 10.9502 59.2627L25.7148 44.5L10.9502 29.7373C10.7672 29.5543 10.6225 29.3367 10.5234 29.0977C10.4244 28.8586 10.3731 28.6025 10.373 28.3438C10.373 28.085 10.4244 27.8289 10.5234 27.5898C10.6225 27.3508 10.7672 27.1332 10.9502 26.9502C11.1332 26.7672 11.3508 26.6225 11.5898 26.5234C11.8289 26.4244 12.085 26.373 12.3438 26.373C12.6025 26.3731 12.8586 26.4244 13.0977 26.5234C13.3367 26.6225 13.5543 26.7672 13.7373 26.9502L28.5 41.7148L43.2627 26.9502L43.4062 26.8203C43.5558 26.6976 43.723 26.5977 43.9023 26.5234C44.1414 26.4244 44.3975 26.373 44.6562 26.373Z" fill="#BC9061" stroke="white"/>
</svg>
