<svg width="36" height="54" viewBox="0 0 36 54" fill="none" xmlns="http://www.w3.org/2000/svg">
<path d="M11.7429 13.7148C14.9869 13.7148 17.6166 11.085 17.6166 7.84103C17.6166 4.59705 14.9869 1.96729 11.7429 1.96729C8.49891 1.96729 5.86914 4.59705 5.86914 7.84103C5.86914 11.085 8.49891 13.7148 11.7429 13.7148Z" stroke="#BC9061" stroke-width="3" stroke-linecap="round"/>
<path d="M5.12953 51.5937L5.26828 37.9846C5.26849 37.6769 5.20371 37.3726 5.07818 37.0917C4.95265 36.8107 4.7692 36.5595 4.53984 36.3543L2.35453 34.4465C2.24318 34.3404 2.15413 34.2131 2.09258 34.0722C2.03103 33.9312 1.99823 33.7794 1.99609 33.6256V20.6524C1.99609 20.0698 2.22755 19.511 2.63954 19.099C3.05154 18.687 3.61032 18.4556 4.19297 18.4556H18.2067C19.0787 18.4586 19.9139 18.8072 20.5294 19.4248C21.1449 20.0425 21.4905 20.8789 21.4905 21.7509V33.6834C21.4908 33.9633 21.3831 34.2325 21.1898 34.4349L19.0855 36.6781C18.7032 37.0848 18.4921 37.623 18.4958 38.1812L18.357 51.5937" stroke="#BC9061" stroke-width="3" stroke-linecap="round"/>
<path d="M29.1649 24.8856C32.1661 24.8856 34.6075 22.4437 34.6075 19.4426C34.6075 16.4415 32.1661 14 29.1649 14C26.1644 14 23.7231 16.4415 23.7231 19.4426C23.7231 22.4437 26.1644 24.8856 29.1649 24.8856ZM29.1649 15.7983C31.1744 15.7983 32.8092 17.4332 32.8092 19.4424C32.8092 21.452 31.1744 23.0871 29.1649 23.0871C27.1561 23.0871 25.5214 21.452 25.5214 19.4424C25.5216 17.4332 27.1561 15.7983 29.1649 15.7983Z" fill="#BC9061"/>
<path d="M25.3438 42.3449V50.9815C25.3438 51.4781 25.7464 51.8807 26.2431 51.8807C26.7397 51.8807 27.1421 51.4783 27.1421 50.9815V41.8821C27.1421 41.8681 27.1407 41.8546 27.1401 41.8409C27.1415 41.518 26.969 41.2051 26.6642 41.0427C25.5132 40.4295 24.7983 39.2446 24.7983 37.9505V32.7908C24.7983 30.8617 26.3675 29.2924 28.2961 29.2924H30.0705C31.9992 29.2924 33.5683 30.8617 33.5683 32.7908V37.9505C33.5683 39.2446 32.8531 40.4293 31.7024 41.0429C31.3914 41.2085 31.2185 41.5308 31.227 41.8606C31.227 41.8677 31.226 41.8747 31.226 41.8821V50.9815C31.226 51.4781 31.6286 51.8807 32.1253 51.8807C32.6219 51.8807 33.0245 51.4783 33.0245 50.9815V42.3435C34.4816 41.3616 35.3666 39.7245 35.3666 37.9505V32.7908C35.3666 29.8702 32.9907 27.4941 30.0705 27.4941H28.2961C25.3759 27.4941 23 29.8702 23 32.7908V37.9505C22.9998 39.7257 23.8855 41.3636 25.3438 42.3449Z" fill="#BC9061"/>
</svg>
