<svg width="63" height="63" viewBox="0 0 63 63" fill="none" xmlns="http://www.w3.org/2000/svg">
<path d="M55.125 17.7188V55.125C55.125 57.2136 54.2953 59.2166 52.8185 60.6935C51.3416 62.1703 49.3386 63 47.25 63H15.75C13.6614 63 11.6584 62.1703 10.1815 60.6935C8.70468 59.2166 7.875 57.2136 7.875 55.125V7.875C7.875 5.78642 8.70468 3.78338 10.1815 2.30653C11.6584 0.829685 13.6614 0 15.75 0L37.4062 0L55.125 17.7188ZM43.3125 17.7188C41.7461 17.7188 40.2438 17.0965 39.1362 15.9889C38.0285 14.8812 37.4062 13.3789 37.4062 11.8125V3.9375H15.75C14.7057 3.9375 13.7042 4.35234 12.9658 5.09077C12.2273 5.82919 11.8125 6.83071 11.8125 7.875V55.125C11.8125 56.1693 12.2273 57.1708 12.9658 57.9092C13.7042 58.6477 14.7057 59.0625 15.75 59.0625H47.25C48.2943 59.0625 49.2958 58.6477 50.0342 57.9092C50.7727 57.1708 51.1875 56.1693 51.1875 55.125V17.7188H43.3125Z" fill="#BC9061"/>
<path d="M32.1649 25.8856C35.1661 25.8856 37.6075 23.4437 37.6075 20.4426C37.6075 17.4415 35.1661 15 32.1649 15C29.1644 15 26.7231 17.4415 26.7231 20.4426C26.7231 23.4437 29.1644 25.8856 32.1649 25.8856ZM32.1649 16.7983C34.1744 16.7983 35.8092 18.4332 35.8092 20.4424C35.8092 22.452 34.1744 24.0871 32.1649 24.0871C30.1561 24.0871 28.5214 22.452 28.5214 20.4424C28.5216 18.4332 30.1561 16.7983 32.1649 16.7983Z" fill="#BC9061"/>
<path d="M28.3438 43.3449V51.9815C28.3438 52.4781 28.7464 52.8807 29.2431 52.8807C29.7397 52.8807 30.1421 52.4783 30.1421 51.9815V42.8821C30.1421 42.8681 30.1407 42.8546 30.1401 42.8409C30.1415 42.518 29.969 42.2051 29.6642 42.0427C28.5132 41.4295 27.7983 40.2446 27.7983 38.9505V33.7908C27.7983 31.8617 29.3675 30.2924 31.2961 30.2924H33.0705C34.9992 30.2924 36.5683 31.8617 36.5683 33.7908V38.9505C36.5683 40.2446 35.8531 41.4293 34.7024 42.0429C34.3914 42.2085 34.2185 42.5308 34.227 42.8606C34.227 42.8677 34.226 42.8747 34.226 42.8821V51.9815C34.226 52.4781 34.6286 52.8807 35.1253 52.8807C35.6219 52.8807 36.0245 52.4783 36.0245 51.9815V43.3435C37.4816 42.3616 38.3666 40.7245 38.3666 38.9505V33.7908C38.3666 30.8702 35.9907 28.4941 33.0705 28.4941H31.2961C28.3759 28.4941 26 30.8702 26 33.7908V38.9505C25.9998 40.7257 26.8855 42.3636 28.3438 43.3449Z" fill="#BC9061"/>
</svg>
