<svg width="69" height="51" viewBox="0 0 69 51" fill="none" xmlns="http://www.w3.org/2000/svg">
<path d="M19.1778 44H16.8978L10.0378 33.62V44H7.75781V30.08H10.0378L16.8978 40.44V30.08H19.1778V44ZM30.5519 41.16H24.7319L23.7319 44H21.3519L26.3319 30.08H28.9719L33.9519 44H31.5519L30.5519 41.16ZM29.9119 39.3L27.6519 32.84L25.3719 39.3H29.9119ZM50.7572 30.1V44H48.4772V34.48L44.2372 44H42.6572L38.3972 34.48V44H36.1172V30.1H38.5772L43.4572 41L48.3172 30.1H50.7572ZM56.0339 31.94V36.02H60.8339V37.88H56.0339V42.14H61.4339V44H53.7539V30.08H61.4339V31.94H56.0339Z" fill="#BC9061"/>
<path d="M36.3145 10.4258L19.1934 27.2744C19.1075 27.3582 19.0021 27.4223 18.8857 27.46H18.8828L12.6885 29.4922C12.6624 29.5007 12.6343 29.5023 12.6074 29.4961C12.5805 29.4898 12.5562 29.4768 12.5381 29.459C12.5202 29.4413 12.5083 29.4197 12.5029 29.3975C12.4976 29.3752 12.4985 29.351 12.5059 29.3291L14.5723 23.2354C14.61 23.1236 14.674 23.0209 14.7598 22.9365L31.8945 6.07715L36.3145 10.4258ZM37.293 1.08789C37.5032 1.08789 37.7033 1.17063 37.8496 1.31445L41.168 4.5791L41.4043 4.81152C41.3983 4.96719 41.3936 5.07459 41.3936 5.11621C41.3935 5.26545 41.3485 5.41113 41.2646 5.53516L41.168 5.65137L38.8408 7.94141L34.4209 3.59277L36.7363 1.31348C36.8825 1.16984 37.0829 1.08797 37.293 1.08789Z" fill="#BC9061" stroke="white"/>
</svg>
