<svg width="63" height="70" viewBox="0 0 63 70" fill="none" xmlns="http://www.w3.org/2000/svg">
<path d="M55.125 17.7188V55.125C55.125 57.2136 54.2953 59.2166 52.8185 60.6935C51.3416 62.1703 49.3386 63 47.25 63H15.75C13.6614 63 11.6584 62.1703 10.1815 60.6935C8.70468 59.2166 7.875 57.2136 7.875 55.125V7.875C7.875 5.78642 8.70468 3.78338 10.1815 2.30653C11.6584 0.829685 13.6614 0 15.75 0L37.4062 0L55.125 17.7188ZM43.3125 17.7188C41.7461 17.7188 40.2438 17.0965 39.1362 15.9889C38.0285 14.8812 37.4062 13.3789 37.4062 11.8125V3.9375H15.75C14.7057 3.9375 13.7042 4.35234 12.9658 5.09077C12.2273 5.82919 11.8125 6.83071 11.8125 7.875V55.125C11.8125 56.1693 12.2273 57.1708 12.9658 57.9092C13.7042 58.6477 14.7057 59.0625 15.75 59.0625H47.25C48.2943 59.0625 49.2958 58.6477 50.0342 57.9092C50.7727 57.1708 51.1875 56.1693 51.1875 55.125V17.7188H43.3125Z" fill="#BC9061"/>
<g clip-path="url(#clip0_258_259)">
<path d="M31 22C27.8174 22 24.7652 23.2643 22.5147 25.5147C20.2643 27.7652 19 30.8174 19 34C19 37.1826 20.2643 40.2348 22.5147 42.4853C24.7652 44.7357 27.8174 46 31 46C34.1826 46 37.2348 44.7357 39.4853 42.4853C41.7357 40.2348 43 37.1826 43 34C43 30.8174 41.7357 27.7652 39.4853 25.5147C37.2348 23.2643 34.1826 22 31 22ZM22.06 28.489C22.5475 30.4825 25.858 32.299 27.6355 33.274C28.3555 33.6685 28.825 33.925 28.75 34C28.629 34.12 28.508 34.237 28.387 34.351C27.763 34.945 27.2065 35.4745 27.25 36.25C27.3025 37.201 28.177 37.486 29.071 37.7755C29.9365 38.0575 30.823 38.3455 31 39.25C31.123 39.8755 30.8875 40.732 30.67 41.53C30.3475 42.703 30.061 43.75 31 43.75C33.25 43 36.697 38.971 37 36.25C37.207 34.3855 34 33.25 31.75 32.5C31.033 32.26 30.6175 32.6215 30.265 32.926C30.007 33.151 29.782 33.3445 29.5 33.25C28.8325 33.028 25.75 30.25 27.25 29.5C28.42 28.915 28.678 29.2435 29.0905 29.773C29.2075 29.9215 29.335 30.085 29.5 30.25C30.4135 30.706 30.493 30.052 30.5845 29.3005C30.643 28.8175 30.706 28.294 31 28C31.651 27.349 32.8975 26.8135 34.042 26.32C35.11 25.861 36.0895 25.4395 36.4105 25C38.1943 26.0727 39.6191 27.6514 40.5038 29.5355C41.3885 31.4197 41.6933 33.5243 41.3793 35.582C41.0654 37.6397 40.1469 39.5577 38.7406 41.0923C37.3343 42.6269 35.5036 43.7089 33.481 44.2009C31.4585 44.6928 29.3353 44.5725 27.3813 43.8553C25.4272 43.138 23.7305 41.8561 22.5065 40.1725C21.2825 38.4888 20.5866 36.4794 20.5071 34.3994C20.4276 32.3194 20.9681 30.2612 22.06 28.489Z" fill="#BC9061"/>
</g>
<path d="M54.3145 50.4258L37.1934 67.2744C37.1075 67.3582 37.0021 67.4223 36.8857 67.46H36.8828L30.6885 69.4922C30.6624 69.5007 30.6343 69.5023 30.6074 69.4961C30.5805 69.4898 30.5562 69.4768 30.5381 69.459C30.5202 69.4413 30.5083 69.4197 30.5029 69.3975C30.4976 69.3752 30.4985 69.351 30.5059 69.3291L32.5723 63.2354C32.61 63.1236 32.674 63.0209 32.7598 62.9365L49.8945 46.0771L54.3145 50.4258ZM55.293 41.0879C55.5032 41.0879 55.7033 41.1706 55.8496 41.3145L59.168 44.5791L59.4043 44.8115C59.3983 44.9672 59.3936 45.0746 59.3936 45.1162C59.3935 45.2654 59.3485 45.4111 59.2646 45.5352L59.168 45.6514L56.8408 47.9414L52.4209 43.5928L54.7363 41.3135C54.8825 41.1698 55.0829 41.088 55.293 41.0879Z" fill="#BC9061" stroke="white"/>
<defs>
<clipPath id="clip0_258_259">
<rect width="24" height="24" fill="white" transform="translate(19 22)"/>
</clipPath>
</defs>
</svg>
